<svg xmlns="http://www.w3.org/2000/svg" xmlns:xlink="http://www.w3.org/1999/xlink" contentStyleType="text/css" data-diagram-type="CLASS" height="381px" preserveAspectRatio="none" style="width:813px;height:381px;background:#FFFFFF;" version="1.1" viewBox="0 0 813 381" width="813px" zoomAndPan="magnify"><title>TaskManager System Flow</title><defs/><g><g class="title" data-source-line="3"><text fill="#000000" font-family="sans-serif" font-size="14" font-weight="bold" lengthAdjust="spacing" textLength="210.834" x="294.4731" y="22.9951">TaskManager System Flow</text></g><!--class Frontend--><g class="entity" data-entity="Frontend" data-source-line="5" data-uid="ent0002" id="entity_Frontend"><rect fill="#F1F1F1" height="58.5938" rx="2.5" ry="2.5" style="stroke:#181818;stroke-width:0.5;" width="120.3066" x="595.19" y="44.2969"/><ellipse cx="610.19" cy="65.5938" fill="#ADD1B2" rx="11" ry="11" style="stroke:#181818;stroke-width:1;"/><path d="M613.1588,71.2344 Q612.5806,71.5313 611.94,71.6719 Q611.2994,71.8281 610.5963,71.8281 Q608.0963,71.8281 606.7681,70.1875 Q605.4556,68.5313 605.4556,65.4063 Q605.4556,62.2813 606.7681,60.625 Q608.0963,58.9688 610.5963,58.9688 Q611.2994,58.9688 611.94,59.125 Q612.5963,59.2813 613.1588,59.5781 L613.1588,62.2969 Q612.5338,61.7188 611.94,61.4531 Q611.3463,61.1719 610.7213,61.1719 Q609.3775,61.1719 608.69,62.25 Q608.0025,63.3125 608.0025,65.4063 Q608.0025,67.5 608.69,68.5781 Q609.3775,69.6406 610.7213,69.6406 Q611.3463,69.6406 611.94,69.375 Q612.5338,69.0938 613.1588,68.5156 L613.1588,71.2344 Z " fill="#000000"/><text fill="#000000" font-family="sans-serif" font-size="14" lengthAdjust="spacing" textLength="63.1094" x="636.7886" y="62.292">Frontend</text><text fill="#000000" font-family="sans-serif" font-size="14" lengthAdjust="spacing" textLength="88.3066" x="624.19" y="78.5889">React + Vite</text><line style="stroke:#181818;stroke-width:0.5;" x1="596.19" x2="714.4966" y1="86.8906" y2="86.8906"/><line style="stroke:#181818;stroke-width:0.5;" x1="596.19" x2="714.4966" y1="94.8906" y2="94.8906"/></g><!--class API--><g class="entity" data-entity="API" data-source-line="6" data-uid="ent0003" id="entity_API"><rect fill="#F1F1F1" height="58.5938" rx="2.5" ry="2.5" style="stroke:#181818;stroke-width:0.5;" width="177.2295" x="566.73" y="179.8869"/><ellipse cx="581.73" cy="201.1837" fill="#ADD1B2" rx="11" ry="11" style="stroke:#181818;stroke-width:1;"/><path d="M584.6988,206.8244 Q584.1206,207.1212 583.48,207.2619 Q582.8394,207.4181 582.1363,207.4181 Q579.6363,207.4181 578.3081,205.7775 Q576.9956,204.1212 576.9956,200.9962 Q576.9956,197.8712 578.3081,196.215 Q579.6363,194.5587 582.1363,194.5587 Q582.8394,194.5587 583.48,194.715 Q584.1363,194.8712 584.6988,195.1681 L584.6988,197.8869 Q584.0738,197.3087 583.48,197.0431 Q582.8863,196.7619 582.2613,196.7619 Q580.9175,196.7619 580.23,197.84 Q579.5425,198.9025 579.5425,200.9962 Q579.5425,203.09 580.23,204.1681 Q580.9175,205.2306 582.2613,205.2306 Q582.8863,205.2306 583.48,204.965 Q584.0738,204.6837 584.6988,204.1056 L584.6988,206.8244 Z " fill="#000000"/><text fill="#000000" font-family="sans-serif" font-size="14" lengthAdjust="spacing" textLength="86.96" x="624.8648" y="197.882">Backend API</text><text fill="#000000" font-family="sans-serif" font-size="14" lengthAdjust="spacing" textLength="145.2295" x="595.73" y="214.1789">.NET Core 9 Web API</text><line style="stroke:#181818;stroke-width:0.5;" x1="567.73" x2="742.9595" y1="222.4806" y2="222.4806"/><line style="stroke:#181818;stroke-width:0.5;" x1="567.73" x2="742.9595" y1="230.4806" y2="230.4806"/></g><!--class Service--><g class="entity" data-entity="Service" data-source-line="7" data-uid="ent0004" id="entity_Service"><rect fill="#F1F1F1" height="58.5938" rx="2.5" ry="2.5" style="stroke:#181818;stroke-width:0.5;" width="182.0898" x="49.3" y="179.8869"/><ellipse cx="64.3" cy="201.1837" fill="#ADD1B2" rx="11" ry="11" style="stroke:#181818;stroke-width:1;"/><path d="M67.2688,206.8244 Q66.6906,207.1212 66.05,207.2619 Q65.4094,207.4181 64.7063,207.4181 Q62.2063,207.4181 60.8781,205.7775 Q59.5656,204.1212 59.5656,200.9962 Q59.5656,197.8712 60.8781,196.215 Q62.2063,194.5587 64.7063,194.5587 Q65.4094,194.5587 66.05,194.715 Q66.7063,194.8712 67.2688,195.1681 L67.2688,197.8869 Q66.6438,197.3087 66.05,197.0431 Q65.4563,196.7619 64.8313,196.7619 Q63.4875,196.7619 62.8,197.84 Q62.1125,198.9025 62.1125,200.9962 Q62.1125,203.09 62.8,204.1681 Q63.4875,205.2306 64.8313,205.2306 Q65.4563,205.2306 66.05,204.965 Q66.6438,204.6837 67.2688,204.1056 L67.2688,206.8244 Z " fill="#000000"/><text fill="#000000" font-family="sans-serif" font-size="14" lengthAdjust="spacing" textLength="150.0898" x="78.3" y="197.882">TaskManager Service</text><text fill="#000000" font-family="sans-serif" font-size="14" lengthAdjust="spacing" textLength="118.9932" x="93.8483" y="214.1789">Windows Service</text><line style="stroke:#181818;stroke-width:0.5;" x1="50.3" x2="230.3898" y1="222.4806" y2="222.4806"/><line style="stroke:#181818;stroke-width:0.5;" x1="50.3" x2="230.3898" y1="230.4806" y2="230.4806"/></g><!--class DB--><g class="entity" data-entity="DB" data-source-line="8" data-uid="ent0005" id="entity_DB"><rect fill="#F1F1F1" height="58.5938" rx="2.5" ry="2.5" style="stroke:#181818;stroke-width:0.5;" width="163.6943" x="416.5" y="315.4869"/><ellipse cx="431.5" cy="336.7837" fill="#ADD1B2" rx="11" ry="11" style="stroke:#181818;stroke-width:1;"/><path d="M434.4688,342.4244 Q433.8906,342.7212 433.25,342.8619 Q432.6094,343.0181 431.9063,343.0181 Q429.4063,343.0181 428.0781,341.3775 Q426.7656,339.7212 426.7656,336.5962 Q426.7656,333.4712 428.0781,331.815 Q429.4063,330.1587 431.9063,330.1587 Q432.6094,330.1587 433.25,330.315 Q433.9063,330.4712 434.4688,330.7681 L434.4688,333.4869 Q433.8438,332.9087 433.25,332.6431 Q432.6563,332.3619 432.0313,332.3619 Q430.6875,332.3619 430,333.44 Q429.3125,334.5025 429.3125,336.5962 Q429.3125,338.69 430,339.7681 Q430.6875,340.8306 432.0313,340.8306 Q432.6563,340.8306 433.25,340.565 Q433.8438,340.2837 434.4688,339.7056 L434.4688,342.4244 Z " fill="#000000"/><text fill="#000000" font-family="sans-serif" font-size="14" lengthAdjust="spacing" textLength="78.0664" x="472.314" y="333.482">SQL Server</text><text fill="#000000" font-family="sans-serif" font-size="14" lengthAdjust="spacing" textLength="131.6943" x="445.5" y="349.7789">Database (Docker)</text><line style="stroke:#181818;stroke-width:0.5;" x1="417.5" x2="579.1943" y1="358.0806" y2="358.0806"/><line style="stroke:#181818;stroke-width:0.5;" x1="417.5" x2="579.1943" y1="366.0806" y2="366.0806"/></g><!--class MQ--><g class="entity" data-entity="MQ" data-source-line="9" data-uid="ent0006" id="entity_MQ"><rect fill="#F1F1F1" height="58.5938" rx="2.5" ry="2.5" style="stroke:#181818;stroke-width:0.5;" width="208.6953" x="7" y="315.4869"/><ellipse cx="22" cy="336.7837" fill="#ADD1B2" rx="11" ry="11" style="stroke:#181818;stroke-width:1;"/><path d="M24.9688,342.4244 Q24.3906,342.7212 23.75,342.8619 Q23.1094,343.0181 22.4063,343.0181 Q19.9063,343.0181 18.5781,341.3775 Q17.2656,339.7212 17.2656,336.5962 Q17.2656,333.4712 18.5781,331.815 Q19.9063,330.1587 22.4063,330.1587 Q23.1094,330.1587 23.75,330.315 Q24.4063,330.4712 24.9688,330.7681 L24.9688,333.4869 Q24.3438,332.9087 23.75,332.6431 Q23.1563,332.3619 22.5313,332.3619 Q21.1875,332.3619 20.5,333.44 Q19.8125,334.5025 19.8125,336.5962 Q19.8125,338.69 20.5,339.7681 Q21.1875,340.8306 22.5313,340.8306 Q23.1563,340.8306 23.75,340.565 Q24.3438,340.2837 24.9688,339.7056 L24.9688,342.4244 Z " fill="#000000"/><text fill="#000000" font-family="sans-serif" font-size="14" lengthAdjust="spacing" textLength="68.5576" x="90.0688" y="333.482">RabbitMQ</text><text fill="#000000" font-family="sans-serif" font-size="14" lengthAdjust="spacing" textLength="176.6953" x="36" y="349.7789">Message Queue (Docker)</text><line style="stroke:#181818;stroke-width:0.5;" x1="8" x2="214.6953" y1="358.0806" y2="358.0806"/><line style="stroke:#181818;stroke-width:0.5;" x1="8" x2="214.6953" y1="366.0806" y2="366.0806"/></g><g class="entity" data-entity="GMN11" data-source-line="17" data-uid="ent0012" id="entity_GMN11"><path d="M266.47,181.4869 L266.47,205.1869 L231.74,209.1869 L266.47,213.1869 L266.47,236.8853 A0,0 0 0 0 266.47,236.8853 L504.2234,236.8853 A0,0 0 0 0 504.2234,236.8853 L504.2234,191.4869 L494.2234,181.4869 L266.47,181.4869 A0,0 0 0 0 266.47,181.4869" fill="#FEFFDD" style="stroke:#181818;stroke-width:0.5;"/><path d="M494.2234,181.4869 L494.2234,191.4869 L504.2234,191.4869 L494.2234,181.4869" fill="#FEFFDD" style="stroke:#181818;stroke-width:0.5;"/><text fill="#000000" font-family="sans-serif" font-size="13" lengthAdjust="spacing" textLength="196.936" x="272.47" y="198.5538">Service runs in background as</text><text fill="#000000" font-family="sans-serif" font-size="13" lengthAdjust="spacing" textLength="216.7534" x="272.47" y="213.6866">Windows Service, polls RabbitMQ</text><text fill="#000000" font-family="sans-serif" font-size="13" lengthAdjust="spacing" textLength="198.3325" x="272.47" y="228.8194">and interacts with SQL Server.</text></g><!--link Frontend to API--><g class="link" data-entity-1="Frontend" data-entity-2="API" data-source-line="11" data-uid="lnk7" id="link_Frontend_API"><path codeLine="11" d="M655.35,103.2469 C655.35,125.7969 655.35,151.0469 655.35,173.5769" fill="none" id="Frontend-to-API" style="stroke:#181818;stroke-width:1;"/><polygon fill="#181818" points="655.35,179.5769,659.35,170.5769,655.35,174.5769,651.35,170.5769,655.35,179.5769" style="stroke:#181818;stroke-width:1;"/><text fill="#000000" font-family="sans-serif" font-size="13" lengthAdjust="spacing" textLength="129.0098" x="656.35" y="145.9538">HTTP REST API calls</text></g><!--link API to DB--><g class="link" data-entity-1="API" data-entity-2="DB" data-source-line="12" data-uid="lnk8" id="link_API_DB"><path codeLine="12" d="M645.63,238.6669 C639.24,254.0469 629.59,272.4969 616.35,285.4869 C604.36,297.2469 594.8259,304.2366 579.7659,312.2566" fill="none" id="API-to-DB" style="stroke:#181818;stroke-width:1;"/><polygon fill="#181818" points="574.47,315.0769,584.294,314.3771,578.8832,312.7267,580.5336,307.3159,574.47,315.0769" style="stroke:#181818;stroke-width:1;"/><text fill="#000000" font-family="sans-serif" font-size="13" lengthAdjust="spacing" textLength="175.4302" x="630.35" y="281.5538">CRUD operations (EF Core)</text></g><!--link Service to MQ--><g class="link" data-entity-1="Service" data-entity-2="MQ" data-source-line="13" data-uid="lnk9" id="link_Service_MQ"><path codeLine="13" d="M120.86,238.9369 C115.75,247.9969 110.96,258.3069 108.35,268.4869 C104.48,283.5669 104.2269,294.9304 105.7369,309.1604" fill="none" id="Service-to-MQ" style="stroke:#181818;stroke-width:1;"/><polygon fill="#181818" points="106.37,315.1269,109.398,305.755,105.8424,310.1548,101.4426,306.5992,106.37,315.1269" style="stroke:#181818;stroke-width:1;"/><text fill="#000000" font-family="sans-serif" font-size="13" lengthAdjust="spacing" textLength="189.4839" x="109.35" y="281.5538">Publish / Consume messages</text></g><!--link Service to DB--><g class="link" data-entity-1="Service" data-entity-2="DB" data-source-line="14" data-uid="lnk10" id="link_Service_DB"><path codeLine="14" d="M227.97,238.8969 C252.64,247.6869 279.29,257.8569 303.35,268.4869 C318.08,274.9869 320.62,278.9769 335.35,285.4869 C361.19,296.8969 384.3714,305.7918 410.5214,315.0118" fill="none" id="Service-to-DB" style="stroke:#181818;stroke-width:1;"/><polygon fill="#181818" points="416.18,317.0069,409.0222,310.2418,411.4645,315.3443,406.3621,317.7866,416.18,317.0069" style="stroke:#181818;stroke-width:1;"/><text fill="#000000" font-family="sans-serif" font-size="13" lengthAdjust="spacing" textLength="271.1719" x="336.35" y="281.5538">Check overdue tasks / Update task status</text></g><!--SRC=[NL51Ri8m4Bpx5LjEe1PwRW-LW8Is4a44GhdaiaaMi0WsyZf5_NqtWHJAoVPunfwPVIXeemt18XmdmzdxD8IyH6QblFObGOAyZz3WbXmiVzZJ0IQbFIbrvNScpXfFfaZDWZ3ty0XVsbC7aA6zkgMFCDyB1CFvPse6ip21iNK4Bx2ch0OReQotcdyso7thd5AprgQm9sw1HdVPtsgNyRI1oQKcG8yPCa4tiEB2zHfHCBhbBp3Bj8_Yr4J4B5z2N55r9ubYfTfmqE-_rORX5JwIP2vLBfFcd6DPigftDICO2M6yM0LWZ-JGQsiOkk6aYTzJ5-SDDOg5Eg-oKlCEdeLWk3eG7Cv- -1_t_EoEyZrOoLY8KozjiUXMnmBz-GZiqLSoLcC5SNgxys0tVtMr3xfAF6a3cSnewsmbuP3LNT5FSBGI3DgY50fDInLEfizmqdu7rz87ggwe_lON]--></g></svg>